<svg xmlns="http://www.w3.org/2000/svg" viewBox="0 0 64 64" width="64" height="64">
  <rect width="64" height="64" rx="16" fill="#1F3A5F"/>
  <!-- building silhouette in cream (CMM = construction defects) -->
  <rect x="14" y="14" width="28" height="38" rx="2" fill="#FAF9F5"/>
  <!-- windows grid -->
  <rect x="18" y="19" width="4" height="4" rx="0.5" fill="#1F3A5F"/>
  <rect x="26" y="19" width="4" height="4" rx="0.5" fill="#1F3A5F"/>
  <rect x="34" y="19" width="4" height="4" rx="0.5" fill="#1F3A5F"/>
  <rect x="18" y="27" width="4" height="4" rx="0.5" fill="#1F3A5F"/>
  <rect x="26" y="27" width="4" height="4" rx="0.5" fill="#1F3A5F"/>
  <rect x="34" y="27" width="4" height="4" rx="0.5" fill="#1F3A5F"/>
  <rect x="18" y="35" width="4" height="4" rx="0.5" fill="#1F3A5F"/>
  <rect x="34" y="35" width="4" height="4" rx="0.5" fill="#1F3A5F"/>
  <!-- entrance -->
  <rect x="24" y="42" width="8" height="10" fill="#1F3A5F"/>
  <!-- alert triangle accent (defects badge) — top-right -->
  <path d="M50 13 L60 30 L40 30 Z" fill="#D64A2E"/>
  <rect x="49" y="19" width="2" height="6" rx="1" fill="#FAF9F5"/>
  <circle cx="50" cy="27.5" r="1.3" fill="#FAF9F5"/>
</svg>
